# xmcd CD database file
#
# Track frame offsets:
#	200
#	22498
#	40716
#	56267
#	74656
#	95153
#	116162
#	130219
#	152109
#	176634
#	209457
#
# Disc length: 2915 seconds
#
# Revision: 0
# Processed by: cddbd v1.5.1PL0 Copyright (c) Steve Scherf et al.
# Submitted via: CDex 1.51
#
DISCID=a70b610b
DTITLE=La Blusa - 2 dance on
DYEAR=1998
DGENRE=Blues
TTITLE0=Tequilla sunrise
TTITLE1=Cajun cooking
TTITLE2=Right on time
TTITLE3=Got to know
TTITLE4=Drowned in your eyes
TTITLE5=Mexico
TTITLE6=Alors Louisiana
TTITLE7=Come on
TTITLE8=Yellow moon
TTITLE9=Let's come together
TTITLE10=Dark end of the street
EXTD=YEAR: 1998
EXTT0=
EXTT1=
EXTT2=
EXTT3=
EXTT4=
EXTT5=
EXTT6=
EXTT7=
EXTT8=
EXTT9=
EXTT10=
PLAYORDER=
